Coordinates
version=1
nRows=15
nColumns=42
inDegrees=yes

Units are S.I. units (second, meters, Newtons, ...)
If the header above contains a line with 'inDegrees', this indicates whether rotational values are in degrees (yes) or radians (no).

endheader
time	pelvis_tilt	pelvis_list	pelvis_rotation	pelvis_tx	pelvis_ty	pelvis_tz	hip_flexion_r	hip_adduction_r	hip_rotation_r	knee_angle_r	knee_adduction_r	knee_angle_r_beta	ankle_angle_r	subtalar_angle_r	mtp_angle_r	hip_flexion_l	hip_adduction_l	hip_rotation_l	knee_angle_l	knee_adduction_l	knee_angle_l_beta	ankle_angle_l	subtalar_angle_l	mtp_angle_l	lumbar_extension	lumbar_bending	lumbar_rotation	arm_flex_r	arm_add_r	arm_rot_r	elbow_flex_r	pro_sup_r	wrist_flex_r	wrist_dev_r	arm_flex_l	arm_add_l	arm_rot_l	elbow_flex_l	pro_sup_l	wrist_flex_l	wrist_dev_l
      2.15000000	     20.17244252	     -1.07928295	      4.20859124	      0.42517965	      0.94397000	     -0.34774114	    -10.10083499	      3.33695379	    -24.04615205	     20.47108034	     -4.02990091	      0.35728775	     11.82272278	     35.53500961	     -7.51800341	    -23.57014522	     -0.06212816	     -5.33778874	     44.66932998	      6.81409818	      0.77962688	     11.20761156	     -9.50211256	     -7.51800341	    -34.48736580	     -1.16672752	     -0.33264526	      6.48799634	     -9.06182613	    -32.85053087	     23.58978132	     90.00000001	      0.00000000	      0.00000000	      0.56390741	    -21.00448359	      6.37481861	     71.66268780	     90.00000001	      0.00000000	      0.00000000
      2.16000000	     20.03811703	     -1.13184361	      4.44436851	      0.42994411	      0.94415113	     -0.34897839	    -10.42510281	      3.37410235	    -23.72747465	     20.26946757	     -3.72139797	      0.35376895	     12.05242659	     35.21970416	     -7.51764167	    -22.04824395	     -0.69205980	     -5.69115815	     47.10654395	      6.63578334	      0.82216429	     11.07751972	    -10.76084330	     -7.51764167	    -34.36852597	     -1.04287773	     -0.38418660	      7.04027616	     -9.09562939	    -32.46281593	     24.04697954	     90.00000001	      0.00000000	      0.00000000	      0.67481829	    -20.99637334	      6.38635443	     71.93689043	     90.00000001	      0.00000000	      0.00000000
      2.17000000	     19.84089120	     -1.27706963	      4.58311513	      0.43463869	      0.94415948	     -0.34988870	    -10.58065548	      3.58905299	    -23.32790676	     20.15436299	     -3.67410291	      0.35175999	     12.26369688	     34.68709869	     -7.51723116	    -20.42225008	     -1.42700460	     -6.18989921	     49.33465311	      6.42379239	      0.86105213	     10.99105031	    -12.29141692	     -7.51723116	    -34.18443547	     -0.90746389	     -0.31577568	      7.58948324	     -9.15265863	    -31.85380892	     24.56335453	     90.00000001	      0.00000000	      0.00000000	      0.78542874	    -20.99951123	      6.37082375	     72.14986790	     90.00000001	      0.00000000	      0.00000000
      2.18000000	     19.71809017	     -1.37744112	      4.72410403	      0.43921729	      0.94432546	     -0.35097203	    -10.86318673	      3.73874817	    -22.47146496	     20.01461900	     -3.39025991	      0.34932100	     12.41330943	     33.40429983	     -7.51489646	    -18.89698668	     -2.08834775	     -6.42881739	     51.14602530	      6.32406438	      0.89266654	     10.81940004	    -14.16288802	     -7.51489646	    -34.11170342	     -0.78680010	     -0.22034732	      7.57626044	     -9.52385474	    -28.05899355	     25.76509543	     90.00000001	      0.00000000	      0.00000000	      0.97303038	    -20.94175182	      6.35011843	     72.29972554	     90.00000001	      0.00000000	      0.00000000
      2.19000000	     19.61261956	     -1.39964608	      4.87784809	      0.44387631	      0.94447987	     -0.35215491	    -11.16896858	      3.76392458	    -22.03238066	     19.87262046	     -3.19576153	      0.34684266	     12.68716393	     32.99542695	     -7.51453849	    -17.37306188	     -2.60516095	     -6.95462334	     52.62814687	      5.74169003	      0.91853444	     11.16816475	    -15.12272735	     -7.51453849	    -34.04974804	     -0.74014523	     -0.20534367	      8.17012310	     -9.56667905	    -27.70200352	     26.36268570	     90.00000001	      0.00000000	      0.00000000	      1.09520703	    -20.94984454	      6.41015085	     72.54671383	     90.00000001	      0.00000000	      0.00000000
      2.20000000	     19.57083434	     -1.49388850	      4.99312365	      0.44844942	      0.94478748	     -0.35324208	    -11.62537301	      3.89772848	    -20.88893141	     19.58071067	     -2.72918436	      0.34174787	     12.78056926	     31.33938257	     -7.51297264	    -15.92958402	     -3.21282024	     -7.40170792	     53.74632419	      5.28177699	      0.93805032	     11.62741856	    -15.99217359	     -7.51297264	    -34.07750354	     -0.64368992	     -0.09284504	      8.47939255	     -9.83331143	    -25.49086183	     27.31872919	     90.00000001	      0.00000000	      0.00000000	      1.25830530	    -20.92065411	      6.47023590	     72.68198757	     90.00000001	      0.00000000	      0.00000000
      2.21000000	     19.59345050	     -1.38689762	      5.09049067	      0.45307744	      0.94523277	     -0.35460232	    -12.08953138	      3.75366769	    -20.60483018	     19.42276517	     -2.56772558	      0.33899120	     13.01890661	     31.12621157	     -7.51279568	    -14.62893050	     -3.47670348	     -7.71059502	     54.32616862	      4.66088156	      0.94817051	     12.27292161	    -16.55947700	     -7.51279568	    -34.16469649	     -0.71886500	     -0.06596110	      9.15884550	     -9.86755028	    -25.26893479	     27.85417280	     90.00000001	      0.00000000	      0.00000000	      1.45986137	    -20.88017806	      6.54947232	     72.82524616	     90.00000001	      0.00000000	      0.00000000
      2.22000000	     19.54845492	     -1.30584330	      5.17179390	      0.45750808	      0.94555706	     -0.35587566	    -12.46102735	      3.65934190	    -20.18729286	     19.25957268	     -2.43325712	      0.33614296	     13.24972312	     30.73079722	     -7.51260871	    -13.18388240	     -3.78308231	     -8.05371414	     54.72174187	      4.07608996	      0.95507457	     12.85478439	    -16.94982727	     -7.51260871	    -34.23134081	     -0.79135956	     -0.00538821	      9.81539830	     -9.95324149	    -24.92739396	     28.48503175	     90.00000001	      0.00000000	      0.00000000	      1.65916713	    -20.89038170	      6.62919486	     72.94746950	     90.00000001	      0.00000000	      0.00000000
      2.23000000	     19.51794158	     -1.45902800	      5.16268014	      0.46188125	      0.94596989	     -0.35684613	    -12.97041854	      3.87421860	    -18.53725628	     18.81821451	     -1.90146420	      0.32843980	     13.18710841	     28.30172232	     -7.51131733	    -11.74395267	     -4.33621059	     -8.39502790	     54.85654533	      3.54687257	      0.95742733	     13.26427309	    -17.12360063	     -7.51131733	    -34.30565074	     -0.69846062	      0.25694998	     10.01491417	    -10.34405297	    -21.87709130	     29.79286423	     90.00000001	      0.00000000	      0.00000000	      1.86455661	    -20.80316327	      6.77036639	     73.02537755	     90.00000001	      0.00000000	      0.00000000
      2.24000000	     19.48162840	     -1.34784276	      5.18624493	      0.46629600	      0.94636898	     -0.35814782	    -13.33429348	      3.72688832	    -18.33039873	     18.67928446	     -1.84693986	      0.32601502	     13.37188706	     28.05509629	     -7.51115925	    -10.37329727	     -4.49987285	     -8.40729551	     54.51687591	      3.10633949	      0.95149898	     13.81192708	    -17.20015038	     -7.51115925	    -34.38291320	     -0.83049625	      0.33326394	     10.75169186	    -10.36878250	    -21.65414583	     30.32136442	     90.00000001	      0.00000000	      0.00000000	      2.05019098	    -20.75653451	      6.85439356	     73.07719699	     90.00000001	      0.00000000	      0.00000000
      2.25000000	     19.39368533	     -1.26651338	      5.19523462	      0.47066126	      0.94668712	     -0.35946928	    -13.63932683	      3.61051305	    -18.05699067	     18.52794138	     -1.79201840	      0.32337358	     13.56372345	     27.75527799	     -7.51100462	     -8.95288192	     -4.63865923	     -8.31801861	     53.90836294	      2.68250385	      0.94087843	     14.24043230	    -17.14170658	     -7.51100462	    -34.40200057	     -0.94050648	      0.43598721	     11.48224933	    -10.39181823	    -21.35996872	     30.91384099	     90.00000001	      0.00000000	      0.00000000	      2.22476360	    -20.70035870	      6.95882327	     73.12737165	     90.00000001	      0.00000000	      0.00000000
      2.26000000	     19.35717762	     -1.10679547	      5.18642727	      0.47498358	      0.94708888	     -0.36093302	    -14.08121125	      3.40330616	    -17.56936115	     18.22487068	     -1.64520438	      0.31808400	     13.80567406	     27.40142994	     -7.51080555	     -7.62579299	     -4.61720912	     -8.06529016	     53.02126878	      2.31916473	      0.92539571	     14.57297402	    -17.12086575	     -7.51080555	    -34.50546833	     -1.11288373	      0.51748912	     12.14240488	    -10.45464587	    -20.76651709	     31.67639584	     90.00000001	      0.00000000	      0.00000000	      2.42007111	    -20.66171528	      7.12038490	     73.13223745	     90.00000001	      0.00000000	      0.00000000
      2.27000000	     19.54682630	     -0.79947945	      5.09087101	      0.47945456	      0.94803097	     -0.36249756	    -14.93059731	      2.94868204	    -16.72330593	     17.69435553	     -1.13339578	      0.30882476	     13.85215822	     26.58752988	     -7.51039306	     -6.77693563	     -4.36616483	     -7.50189989	     51.50589832	      2.21175914	      0.89894751	     14.48804379	    -17.16119246	     -7.51039306	    -34.85759175	     -1.44632601	      0.61926376	     12.55307649	    -10.75055738	    -18.92519680	     32.84198538	     90.00000001	      0.00000000	      0.00000000	      2.64085257	    -20.66431609	      7.37892434	     73.11942604	     90.00000001	      0.00000000	      0.00000000
      2.28000000	     19.33489275	     -0.83992068	      5.08855580	      0.48377559	      0.94801602	     -0.36388682	    -15.04205747	      2.99762653	    -16.52703126	     17.59285793	     -1.25525308	      0.30705330	     13.97744944	     26.15788814	     -7.51022096	     -5.25864677	     -4.52650697	     -7.25683415	     50.30067592	      1.80664032	      0.87791241	     14.73111782	    -16.86718739	     -7.51022096	    -34.72809107	     -1.45300027	      0.75198200	     13.29474369	    -10.77110563	    -18.46340024	     33.39907907	     90.00000001	      0.00000000	      0.00000000	      2.73334392	    -20.56402373	      7.46178213	     73.16043613	     90.00000001	      0.00000000	      0.00000000
      2.29000000	     19.50018828	     -0.60188655	      5.02164971	      0.48826330	      0.94882971	     -0.36558990	    -15.90818546	      2.65050206	    -15.48649208	     16.94075929	     -0.74994144	      0.29567203	     13.86688027	     24.81862424	     -7.50938708	     -4.45299339	     -4.28009025	     -6.58867837	     48.40934425	      1.66460217	      0.84490245	     14.47688740	    -17.05140425	     -7.50938708	    -35.04022950	     -1.70276321	      0.78272909	     13.59725039	    -11.29005779	    -15.16164073	     34.66083778	     90.00000001	      0.00000000	      0.00000000	      2.84106360	    -20.51508283	      7.57137569	     73.18313379	     90.00000001	      0.00000000	      0.00000000
